<svg width="388" height="79" viewBox="0 0 388 79" fill="none" xmlns="http://www.w3.org/2000/svg">
<path d="M256.28 17.8354C256.831 17.8354 257.377 17.7212 257.886 17.4992C258.395 17.2772 258.857 16.9518 259.247 16.5415C259.637 16.1313 259.946 15.6443 260.156 15.1084C260.367 14.5724 260.476 13.9979 260.476 13.4178C260.476 12.8377 260.367 12.2632 260.156 11.7273C259.946 11.1913 259.637 10.7043 259.247 10.2941C258.857 9.88386 258.395 9.55847 257.886 9.33646C257.377 9.11445 256.831 9.00019 256.28 9.00019C255.722 8.99481 255.169 9.10521 254.652 9.32508C254.135 9.54494 253.665 9.86996 253.267 10.2815C252.87 10.6931 252.553 11.1831 252.336 11.7236C252.118 12.2641 252.004 12.8444 252 13.4314C252.015 14.6121 252.474 15.7384 253.276 16.5637C254.078 17.3891 255.158 17.8463 256.28 17.8354Z" fill="white"/>
<path d="M138.227 7.79808L138.171 7.61194L137.993 7.56023C136.479 7.15757 134.923 6.97676 133.367 7.02249C131.757 6.98068 130.15 7.16134 128.581 7.56023L128.403 7.61194L109.186 63.8783L109.486 64.0334C111.12 64.7784 112.88 65.1309 114.647 65.0676C116.027 65.0819 117.405 64.9642 118.766 64.716H118.963L123.336 51.2724H142.919L147.441 64.716H147.629C148.888 64.9746 150.167 65.0958 151.448 65.0779C153.409 65.1303 155.363 64.7977 157.219 64.0955L157.557 63.961L138.227 7.79808ZM133.048 20.921L134.155 24.9231L139.879 41.9654H126.367L131.94 24.9024L133.048 20.921Z" fill="white"/>
<path d="M196.488 6.15353C194.968 5.8772 193.431 5.72855 191.89 5.70886C190.377 5.71854 188.868 5.86728 187.377 6.15353H187.086V22.3788C184.73 21.5399 182.261 21.1483 179.786 21.2206C167.672 21.2206 158.889 30.7242 158.889 43.8161C158.889 57.4872 167.015 65.9773 180.105 65.9773C185.816 65.9827 191.454 64.5688 196.601 61.8408L196.779 61.7374V6.20524L196.488 6.15353ZM187.105 32.4615V55.3362C184.806 56.2166 182.377 56.613 179.945 56.5048C173.143 56.5048 168.742 51.4479 168.742 43.63C168.742 36.0499 173.433 30.7552 180.105 30.7552C182.529 30.6144 184.943 31.2043 187.086 32.4615H187.105Z" fill="white"/>
<path d="M240.758 6.15353C239.238 5.8772 237.701 5.72855 236.16 5.70886C234.647 5.71854 233.137 5.86728 231.647 6.15353H231.356V22.3788C228.999 21.5417 226.531 21.1501 224.056 21.2206C211.942 21.2206 203.15 30.7242 203.15 43.8161C203.15 57.4872 211.285 65.9773 224.375 65.9773C230.083 65.9829 235.718 64.5689 240.861 61.8408L241.049 61.7374V6.20524L240.758 6.15353ZM231.375 55.3362C229.076 56.2166 226.647 56.613 224.215 56.5048C217.403 56.5048 213.012 51.4479 213.012 43.63C213.012 36.0499 217.703 30.7552 224.375 30.7552C226.797 30.6049 229.21 31.184 231.356 32.4305L231.375 55.3362Z" fill="white"/>
<path d="M256.006 22.0376C254.46 22.0051 252.916 22.1542 251.399 22.4823L251.117 22.5443V64.6019L251.399 64.664C252.916 64.995 254.46 65.1475 256.006 65.119C257.531 65.1537 259.054 65.001 260.548 64.664L260.82 64.6019V22.5547L260.548 22.4823C259.053 22.156 257.53 22.0069 256.006 22.0376Z" fill="white"/>
<path d="M306.084 22.4823C304.567 22.1548 303.023 22.0057 301.477 22.0377C299.929 22.0109 298.382 22.1599 296.861 22.4823L296.589 22.5444V54.902C294.234 55.9157 291.722 56.411 289.195 56.3601C281.791 56.3601 280.384 52.7924 280.384 46.205V22.5547L280.112 22.4823C278.617 22.155 277.094 22.0059 275.57 22.0377C273.997 22.0093 272.425 22.1583 270.878 22.4823L270.597 22.5444V49.1109C270.597 56.8151 273.618 65.9981 287.994 65.9981C294.252 66.0621 300.441 64.5444 306.084 61.5617L306.281 61.4583V22.5444L306.084 22.4823Z" fill="white"/>
<path d="M350.843 22.8339C348.937 22.3065 346.98 22.039 345.016 22.0376C343.798 22.0342 342.581 22.124 341.375 22.3065H341.14L341.093 22.565C338.929 33.2576 335.921 43.7213 332.104 53.8368L331.982 54.178L331.87 53.8471C327.989 43.7216 324.879 33.2582 322.571 22.565L322.515 22.3168H322.28C321.102 22.1297 319.914 22.0398 318.724 22.048C316.605 22.0669 314.495 22.3338 312.428 22.8442L312.09 22.9373L312.174 23.3096C316.115 40.2898 320.553 52.6165 327.028 64.4985L327.112 64.6433H327.253C328.745 64.9722 330.264 65.1248 331.785 65.0983C333.257 65.1275 334.727 64.9749 336.167 64.6433H336.317L336.392 64.4985C343.052 51.6054 348.012 37.7332 351.124 23.2993L351.199 22.9373L350.843 22.8339Z" fill="white"/>
<path d="M370.378 21.1586C362.553 21.1586 356.791 25.0779 354.84 27.1462L354.718 27.2806V27.4771C354.89 28.8963 355.374 30.2476 356.128 31.4137C356.881 32.5798 357.882 33.5252 359.043 34.1678L359.231 34.2816L359.409 34.1368C362.427 31.7835 366.034 30.5223 369.731 30.5277C375.445 30.5277 378.467 33.1544 378.467 38.1285V39.9589C375.564 38.9615 372.536 38.4832 369.496 38.5422C363.951 38.4905 359.269 40.1761 356.407 43.3095C355.358 44.4542 354.534 45.8242 353.985 47.3344C353.436 48.8446 353.174 50.463 353.216 52.0891C353.216 57.2597 355.421 65.998 370.209 65.998C376.272 65.9963 382.267 64.5869 387.803 61.8615L388 61.7581V38.749C388.009 27.4047 381.751 21.1586 370.378 21.1586ZM371.016 57.5906C365.978 57.5906 363.078 55.4293 363.078 51.6548C363.078 47.3218 366.963 46.4118 370.219 46.4118C373.036 46.3457 375.838 46.8722 378.476 47.963V56.3704C376.057 57.1748 373.544 57.5859 371.016 57.5906Z" fill="white"/>
<path d="M41.8119 22.2852C40.8886 22.4134 40.0178 22.8108 39.2977 23.4324C38.5775 24.0539 38.0367 24.8751 37.7363 25.803C37.4358 26.731 37.3876 27.7289 37.5972 28.6842C37.8068 29.6395 38.2657 30.5141 38.9223 31.2093C39.5789 31.9046 40.4069 32.3928 41.3131 32.6189C42.2192 32.845 43.1673 32.8001 44.0504 32.489C44.9335 32.178 45.7165 31.6134 46.3111 30.8588C46.9056 30.1042 47.288 29.1896 47.4151 28.2184C47.5174 27.4168 47.4432 26.6012 47.1983 25.8347C46.9534 25.0681 46.5443 24.3711 46.0027 23.7976C45.461 23.2241 44.8014 22.7894 44.0747 22.5271C43.348 22.2649 42.5738 22.1821 41.8119 22.2852ZM83.3519 60.1068L52.8634 6.1235C51.4176 3.54873 49.1505 1.59789 46.4662 0.618467L46.2402 0.536911L45.9562 0.448558L45.5689 0.35341L45.4204 0.292243L44.9621 0.183501H44.8717L44.3811 0.0679634H44.3036L43.8259 0H43.7097H43.2772H43.09H42.735H42.1927H41.8377H41.6505H41.2244H41.1018L40.6564 0.0543707H40.5789L40.0883 0.149519H39.9979L39.5461 0.258261L39.3653 0.35341L38.9973 0.468947L38.7198 0.536911L38.5003 0.618467C35.7938 1.58422 33.5043 3.53668 32.045 6.1235L1.57583 60.1068C0.0572659 62.9983 -0.330782 66.3992 0.494106 69.587C1.31899 72.7749 3.29183 75.4986 5.99356 77.1796C8.69529 78.8607 11.9131 79.3665 14.9634 78.5898C18.0137 77.8131 20.6562 75.815 22.3297 73.0199L38.6294 44.183L32.6453 33.5943C31.1078 30.8445 30.667 27.5655 31.4195 24.4745C32.1719 21.3835 34.0563 18.7319 36.6605 17.0996C37.3129 16.6955 38.0029 16.363 38.7198 16.1073L38.9328 16.0326L39.2039 15.9374L39.5525 15.8355L39.6945 15.7947L40.127 15.6927H40.2109L40.6757 15.6044H40.7532L41.2051 15.5432H41.3148L41.728 15.5092H41.9022H42.2379H42.7543H43.09H43.2643L43.6775 15.5432H43.7872L44.2391 15.6044H44.3165L44.7813 15.6927H44.8652L45.2977 15.7947L45.4398 15.8355L45.7948 15.9374L46.0595 16.0326L46.2725 16.1073C46.9783 16.3651 47.6574 16.6976 48.2995 17.0996C50.8972 18.7386 52.7734 21.3932 53.5185 24.4836C54.2635 27.5741 53.8168 30.8494 52.276 33.5943L46.2983 44.183L62.6045 73.0742C64.2779 75.8693 66.9205 77.8675 69.9708 78.6442C73.0211 79.4209 76.2389 78.915 78.9406 77.234C81.6423 75.553 83.6152 72.8293 84.4401 69.6414C85.265 66.4535 84.8769 63.0527 83.3583 60.1612L83.3519 60.1068Z" fill="white"/>
</svg>
