<svg width="196" height="48" viewBox="0 0 196 48" fill="none" xmlns="http://www.w3.org/2000/svg">
<path d="M76.7995 45.3204C76.6516 45.3997 76.4842 45.4369 76.316 45.4278C76.183 45.43 76.0503 45.4161 75.9207 45.3865L75.2522 43.6067H72.5656L71.9181 45.3865C71.7999 45.4153 71.6784 45.4292 71.5565 45.4278C71.3873 45.4334 71.2194 45.3965 71.0688 45.3204L73.478 39.0024C73.614 38.9607 73.756 38.9412 73.8984 38.9446C74.0409 38.9393 74.1833 38.9589 74.3189 39.0024L76.7995 45.3204ZM74.9874 42.9129L74.0582 40.4353L73.8858 39.8985L73.7134 40.4353L72.8221 42.9129H74.9874Z" fill="white"/>
<path d="M82.4628 39.0314L80.1125 42.9502V45.3948C79.9749 45.4283 79.8338 45.4463 79.692 45.4485C79.5586 45.4466 79.4258 45.4286 79.2968 45.3948V42.9171L76.9129 39.0314C77.0759 38.9796 77.2461 38.9531 77.4174 38.9529C77.547 38.9511 77.6765 38.9608 77.8042 38.9818L79.5743 41.8972L79.7383 42.2441L79.8981 41.8972L81.6093 38.9818C81.7395 38.958 81.8721 38.9483 82.0045 38.9529C82.1607 38.9531 82.3157 38.9796 82.4628 39.0314Z" fill="white"/>
<path d="M83.8588 42.8923V39.0024C83.9969 38.9724 84.1377 38.9558 84.2792 38.9529C84.4207 38.9557 84.5615 38.9723 84.6997 39.0024V42.8923C84.6997 43.9949 85.2841 44.7712 86.4487 44.7712C87.6133 44.7712 88.2104 43.9949 88.2104 42.8923V39.0024C88.3486 38.9727 88.4894 38.9561 88.6308 38.9529C88.7598 38.9554 88.8882 38.972 89.0134 39.0024V42.8923C89.0134 44.6226 87.9791 45.5476 86.4403 45.5476C84.9015 45.5476 83.8588 44.6226 83.8588 42.8923Z" fill="white"/>
<path d="M96.5774 42.1573C96.5774 44.094 95.1984 45.4608 92.9826 45.4608C92.372 45.4712 91.7616 45.4312 91.1579 45.341V39.0313C91.7274 38.9376 92.3044 38.8948 92.8817 38.9033C95.2783 38.9157 96.5774 40.2164 96.5774 42.1573ZM95.7155 42.1779C95.7155 40.6831 94.8242 39.659 92.8817 39.659C92.5874 39.659 92.3351 39.659 91.9778 39.7003V44.701C92.3213 44.7363 92.6666 44.7528 93.0121 44.7505C94.8032 44.7505 95.7155 43.6893 95.7155 42.1779Z" fill="white"/>
<path d="M103.229 45.3204C103.079 45.3993 102.911 45.4364 102.741 45.4278C102.608 45.4297 102.475 45.4159 102.346 45.3865L101.694 43.6067H99.0117L98.3306 45.3865C98.211 45.4156 98.0881 45.4294 97.9648 45.4278C97.797 45.4329 97.6306 45.396 97.4813 45.3204L99.8905 39.0024C100.026 38.9607 100.169 38.9412 100.311 38.9446C100.453 38.9393 100.596 38.9589 100.731 39.0024L103.229 45.3204ZM101.417 42.9129L100.483 40.4353L100.311 39.8985L100.139 40.4353L99.2472 42.9129H101.417Z" fill="white"/>
<path d="M106.811 44.734C106.851 44.6049 106.916 44.4848 107.004 44.3806C107.091 44.2764 107.198 44.1902 107.32 44.127C107.531 44.3467 107.787 44.5211 108.071 44.639C108.354 44.757 108.66 44.816 108.968 44.8125C109.981 44.8125 110.456 44.3376 110.456 43.6686C110.456 43.1731 110.217 42.7643 108.959 42.4752C107.946 42.2398 107.004 41.831 107.004 40.5963C107.004 39.6011 107.824 38.8578 109.107 38.8578C109.851 38.8249 110.585 39.0451 111.184 39.4814C111.167 39.6132 111.12 39.7397 111.047 39.8518C110.975 39.9639 110.878 40.0588 110.763 40.1297C110.293 39.7769 109.715 39.5907 109.123 39.6011C108.333 39.6011 107.862 40.0141 107.862 40.5468C107.862 41.0795 108.123 41.3726 109.178 41.6328C110.486 41.9508 111.327 42.4587 111.327 43.6521C111.327 44.8455 110.423 45.5599 109.014 45.5599C108.608 45.5838 108.202 45.5224 107.822 45.38C107.442 45.2376 107.097 45.0174 106.811 44.734Z" fill="white"/>
<path d="M113.046 45.3865V39.0024C113.182 38.9599 113.324 38.9404 113.467 38.9446C113.609 38.938 113.752 38.9576 113.887 39.0024V45.3865C113.75 45.4222 113.609 45.4402 113.467 45.4402C113.325 45.4384 113.184 45.4204 113.046 45.3865Z" fill="white"/>
<path d="M121.22 39.0024V45.3287C120.985 45.3894 120.743 45.4199 120.501 45.4195L117.049 40.6253L116.889 40.3073V45.3865C116.764 45.4246 116.633 45.4427 116.502 45.4402C116.369 45.4418 116.235 45.4237 116.107 45.3865V39.0809C116.333 38.9699 116.589 38.9323 116.839 38.9735L120.278 43.7058L120.45 43.9949V43.5572V39.0148C120.577 38.9846 120.707 38.968 120.837 38.9653C120.966 38.964 121.094 38.9765 121.22 39.0024Z" fill="white"/>
<path d="M127.123 39.7581V41.9467H129.94C129.996 42.1886 129.996 42.4399 129.94 42.6818H127.123V45.3865C126.985 45.4213 126.844 45.4393 126.702 45.4402C126.56 45.439 126.419 45.421 126.282 45.3865V39.0024H130.285C130.311 39.1301 130.324 39.2603 130.322 39.3906C130.324 39.5141 130.312 39.6375 130.285 39.7581H127.123Z" fill="white"/>
<path d="M136.591 45.3287C136.409 45.3831 136.219 45.4095 136.028 45.4071C135.909 45.4178 135.789 45.4178 135.67 45.4071L134.111 42.9295C134.041 42.9336 133.97 42.9336 133.9 42.9295C133.535 42.9295 133.139 42.9295 132.757 42.8923V45.4154C132.62 45.4539 132.478 45.472 132.336 45.4691C132.194 45.4736 132.052 45.4555 131.916 45.4154V39.1015C132.561 38.9652 133.219 38.896 133.879 38.895C135.527 38.895 136.297 39.6507 136.297 40.8152C136.308 41.2363 136.18 41.6496 135.932 41.9934C135.684 42.3372 135.33 42.5931 134.922 42.723L136.591 45.3287ZM133.9 42.1779C135.052 42.1779 135.498 41.5998 135.498 40.8317C135.498 40.0636 134.994 39.5929 133.888 39.5929C133.509 39.591 133.13 39.6214 132.757 39.6837V42.1077C133.129 42.1563 133.504 42.1797 133.879 42.1779H133.9Z" fill="white"/>
<path d="M137.735 42.1862C137.735 40.2949 139.093 38.8248 140.976 38.8248C142.86 38.8248 144.218 40.2454 144.218 42.1862C144.218 44.0568 142.86 45.5393 140.976 45.5393C139.093 45.5393 137.735 44.1064 137.735 42.1862ZM143.356 42.1862C143.356 40.6459 142.414 39.5723 140.976 39.5723C139.538 39.5723 138.597 40.6459 138.597 42.1862C138.597 43.7265 139.534 44.8125 140.976 44.8125C142.418 44.8125 143.356 43.6975 143.356 42.1862Z" fill="white"/>
<path d="M151.134 39.0024V45.3287C150.899 45.3889 150.658 45.4194 150.415 45.4195L146.959 40.6253L146.799 40.3073V45.3865C146.674 45.4246 146.544 45.4427 146.413 45.4402C146.279 45.4418 146.146 45.4237 146.017 45.3865V39.0809C146.244 38.9699 146.5 38.9323 146.749 38.9735L150.192 43.7058L150.365 43.9949V43.5572V39.0148C150.492 38.9846 150.621 38.968 150.752 38.9653C150.88 38.9646 151.008 38.977 151.134 39.0024Z" fill="white"/>
<path d="M157.613 39.7375H155.549V45.3989C155.28 45.4653 154.998 45.4653 154.729 45.3989V39.7375H152.652C152.621 39.6172 152.604 39.4939 152.601 39.37C152.604 39.246 152.621 39.1227 152.652 39.0024H157.613C157.644 39.1227 157.661 39.246 157.664 39.37C157.661 39.4939 157.644 39.6172 157.613 39.7375Z" fill="white"/>
<path d="M163.344 44.9984C163.344 45.1299 163.325 45.2608 163.285 45.3865H159.152V39.0024H163.18C163.223 39.1275 163.244 39.2587 163.243 39.3906C163.244 39.5131 163.223 39.6348 163.18 39.7499H159.964V41.7279H162.827C162.868 41.8463 162.889 41.9704 162.89 42.0954C162.89 42.2205 162.869 42.3447 162.827 42.4629H159.964V44.6515H163.285C163.324 44.7633 163.343 44.8804 163.344 44.9984Z" fill="white"/>
<path d="M169.764 45.3287C169.58 45.3831 169.389 45.4096 169.197 45.4071C169.079 45.4178 168.961 45.4178 168.843 45.4071L167.284 42.9295C167.212 42.9336 167.141 42.9336 167.069 42.9295C166.708 42.9295 166.312 42.9295 165.925 42.8923V45.4154C165.789 45.4539 165.647 45.472 165.505 45.4691C165.363 45.473 165.221 45.4548 165.085 45.4154V39.1015C165.73 38.9654 166.388 38.8962 167.048 38.895C168.7 38.895 169.47 39.6507 169.47 40.8152C169.48 41.2367 169.351 41.65 169.102 41.9937C168.854 42.3375 168.499 42.5933 168.091 42.723L169.764 45.3287ZM167.069 42.1779C168.225 42.1779 168.671 41.5998 168.671 40.8317C168.671 40.0636 168.162 39.5929 167.061 39.5929C166.68 39.5912 166.301 39.6216 165.925 39.6837V42.1077C166.305 42.1571 166.687 42.1806 167.069 42.1779Z" fill="white"/>
<path d="M176.428 45.3204C176.279 45.3993 176.11 45.4364 175.941 45.4278C175.808 45.43 175.675 45.4161 175.545 45.3865L174.877 43.6067H172.194L171.547 45.3865C171.427 45.4151 171.304 45.429 171.181 45.4278C171.012 45.4331 170.844 45.3961 170.693 45.3204L173.107 39.0024C173.243 38.9599 173.385 38.9404 173.527 38.9446C173.67 38.939 173.812 38.9586 173.948 39.0024L176.428 45.3204ZM174.612 42.913L173.683 40.4353L173.51 39.8985L173.338 40.4353L172.447 42.913H174.612Z" fill="white"/>
<path d="M177.328 44.7341C177.366 44.6048 177.431 44.4845 177.517 44.3802C177.604 44.2759 177.711 44.1898 177.832 44.127C178.044 44.3455 178.299 44.519 178.582 44.6369C178.865 44.7548 179.169 44.8146 179.476 44.8125C180.49 44.8125 180.965 44.3377 180.965 43.6687C180.965 43.1732 180.721 42.7643 179.464 42.4753C178.455 42.2399 177.513 41.8311 177.513 40.5964C177.513 39.6012 178.333 38.8579 179.615 38.8579C180.358 38.8256 181.09 39.0458 181.688 39.4814C181.671 39.6135 181.625 39.7402 181.552 39.8524C181.48 39.9645 181.382 40.0593 181.267 40.1298C180.797 39.7779 180.219 39.5917 179.628 39.6012C178.837 39.6012 178.366 40.0141 178.366 40.5468C178.366 41.0795 178.631 41.3727 179.682 41.6329C180.99 41.9508 181.831 42.4588 181.831 43.6522C181.831 44.8456 180.931 45.56 179.523 45.56C179.118 45.5837 178.713 45.5223 178.334 45.3799C177.956 45.2375 177.613 45.0173 177.328 44.7341Z" fill="white"/>
<path d="M84.0816 4.30289L84.0564 4.22856L83.9765 4.20791C83.2982 4.04712 82.6012 3.97492 81.9037 3.99318C81.1826 3.97649 80.4622 4.04863 79.7594 4.20791L79.6795 4.22856L71.0688 26.6967L71.2034 26.7587C71.9355 27.0562 72.7239 27.1969 73.5158 27.1716C74.134 27.1774 74.7516 27.1304 75.3616 27.0312H75.4499L77.4091 21.663H86.1838L88.2103 27.0312H88.2944C88.8586 27.1345 89.4318 27.1829 90.0056 27.1758C90.8844 27.1967 91.76 27.0639 92.5914 26.7835L92.7427 26.7298L84.0816 4.30289ZM81.7607 9.54313L82.2569 11.1412L84.8216 17.9465H78.7672L81.2646 11.133L81.7607 9.54313Z" fill="white"/>
<path d="M110.187 3.64625C109.506 3.53591 108.817 3.47655 108.127 3.46869C107.449 3.47255 106.773 3.53195 106.105 3.64625H105.974V10.1253C104.919 9.79033 103.812 9.63394 102.703 9.66282C97.2754 9.66282 93.34 13.4578 93.34 18.6856C93.34 24.1447 96.9811 27.535 102.846 27.535C105.405 27.5371 107.932 26.9725 110.238 25.8832L110.318 25.8419V3.6669L110.187 3.64625ZM105.983 14.1515V23.2858C104.953 23.6374 103.864 23.7956 102.775 23.7524C99.7266 23.7524 97.7547 21.7331 97.7547 18.6113C97.7547 15.5844 99.8569 13.4701 102.846 13.4701C103.933 13.4139 105.014 13.6495 105.974 14.1515H105.983Z" fill="white"/>
<path d="M130.024 3.64625C129.342 3.53591 128.654 3.47655 127.963 3.46869C127.286 3.47255 126.609 3.53195 125.941 3.64625H125.811V10.1253C124.755 9.79103 123.649 9.63466 122.54 9.66282C117.112 9.66282 113.172 13.4578 113.172 18.6856C113.172 24.1447 116.817 27.535 122.683 27.535C125.24 27.5372 127.765 26.9726 130.07 25.8832L130.154 25.8419V3.6669L130.024 3.64625ZM125.819 23.2858C124.789 23.6374 123.701 23.7956 122.611 23.7524C119.559 23.7524 117.591 21.7331 117.591 18.6113C117.591 15.5844 119.693 13.4701 122.683 13.4701C123.768 13.4101 124.849 13.6414 125.811 14.1391L125.819 23.2858Z" fill="white"/>
<path d="M136.856 7.90785C137.215 7.90785 137.57 7.83843 137.902 7.70354C138.233 7.56865 138.535 7.37093 138.788 7.12169C139.042 6.87245 139.243 6.57655 139.381 6.2509C139.518 5.92524 139.589 5.57621 139.589 5.22373C139.589 4.87124 139.518 4.52221 139.381 4.19656C139.243 3.87091 139.042 3.57501 138.788 3.32577C138.535 3.07652 138.233 2.87881 137.902 2.74392C137.57 2.60903 137.215 2.5396 136.856 2.5396C136.493 2.53634 136.133 2.60342 135.796 2.73701C135.459 2.87059 135.153 3.06807 134.894 3.31814C134.635 3.5682 134.429 3.86595 134.287 4.19435C134.145 4.52275 134.071 4.87535 134.068 5.23199C134.078 5.94938 134.377 6.63368 134.9 7.13516C135.422 7.63664 136.125 7.91447 136.856 7.90785Z" fill="white"/>
<path d="M136.856 9.98905C136.164 9.97607 135.472 10.0356 134.792 10.1666L134.666 10.1914V26.9857L134.792 27.0105C135.471 27.1427 136.163 27.2036 136.856 27.1922C137.539 27.2061 138.222 27.1451 138.891 27.0105L139.013 26.9857V10.1955L138.891 10.1666C138.221 10.0363 137.539 9.97678 136.856 9.98905Z" fill="white"/>
<path d="M159.295 10.1666C158.615 10.0358 157.923 9.9763 157.231 9.98905C156.537 9.97837 155.844 10.0379 155.162 10.1666L155.04 10.1914V23.1124C153.985 23.5171 152.86 23.715 151.727 23.6946C148.41 23.6946 147.779 22.27 147.779 19.6395V10.1955L147.657 10.1666C146.987 10.0359 146.305 9.97637 145.622 9.98905C144.917 9.9777 144.213 10.0372 143.52 10.1666L143.394 10.1914V20.7999C143.394 23.8763 144.748 27.5432 151.189 27.5432C153.993 27.5688 156.766 26.9628 159.295 25.7717L159.383 25.7304V10.1914L159.295 10.1666Z" fill="white"/>
<path d="M179.35 10.307C178.497 10.0964 177.62 9.98961 176.739 9.98905C176.194 9.98767 175.649 10.0235 175.108 10.0964H175.003L174.982 10.1997C174.012 14.4694 172.665 18.6478 170.954 22.687L170.899 22.8233L170.849 22.6912C169.11 18.6479 167.717 14.4696 166.682 10.1997L166.657 10.1005H166.552C166.024 10.0258 165.492 9.98993 164.959 9.99318C164.009 10.0007 163.064 10.1073 162.137 10.3111L161.986 10.3483L162.024 10.497C163.79 17.2775 165.778 22.1998 168.68 26.9445L168.717 27.0023H168.78C169.449 27.1336 170.13 27.1945 170.811 27.184C171.471 27.1956 172.129 27.1347 172.775 27.0023H172.842L172.876 26.9445C175.86 21.796 178.082 16.2566 179.477 10.4928L179.51 10.3483L179.35 10.307Z" fill="white"/>
<path d="M188.104 9.63806C184.598 9.63806 182.016 11.2031 181.142 12.029L181.087 12.0827V12.1611C181.164 12.7278 181.381 13.2675 181.719 13.7331C182.056 14.1987 182.505 14.5763 183.025 14.8329L183.109 14.8783L183.189 14.8205C184.541 13.8808 186.158 13.3771 187.814 13.3793C190.374 13.3793 191.728 14.4282 191.728 16.4144V17.1454C190.428 16.7471 189.071 16.5561 187.709 16.5796C185.224 16.559 183.126 17.2321 181.844 18.4833C181.374 18.9404 181.004 19.4875 180.758 20.0905C180.513 20.6936 180.395 21.3398 180.414 21.9892C180.414 24.0539 181.402 27.5432 188.028 27.5432C190.745 27.5426 193.431 26.9798 195.912 25.8915L196 25.8502V16.6622C196.004 12.1322 193.2 9.63806 188.104 9.63806ZM188.39 24.186C186.132 24.186 184.833 23.323 184.833 21.8157C184.833 20.0855 186.574 19.7221 188.033 19.7221C189.295 19.6957 190.551 19.906 191.733 20.3415V23.6987C190.648 24.02 189.522 24.1841 188.39 24.186Z" fill="white"/>
<path d="M27.187 13.5404C26.5857 13.6183 26.0186 13.8597 25.5495 14.2374C25.0805 14.6151 24.7282 15.114 24.5325 15.6778C24.3368 16.2416 24.3055 16.848 24.442 17.4284C24.5785 18.0088 24.8774 18.5402 25.305 18.9626C25.7327 19.3851 26.272 19.6817 26.8622 19.8191C27.4523 19.9565 28.0699 19.9291 28.645 19.7402C29.2202 19.5512 29.7302 19.2081 30.1174 18.7496C30.5047 18.2911 30.7537 17.7355 30.8365 17.1454C30.9031 16.6583 30.8548 16.1628 30.6953 15.697C30.5358 15.2313 30.2693 14.8078 29.9166 14.4593C29.5638 14.1108 29.1342 13.8467 28.6609 13.6874C28.1876 13.528 27.6833 13.4777 27.187 13.5404ZM54.2427 36.5206L34.3851 3.72061C33.4434 2.15619 31.9668 0.970869 30.2185 0.375777L30.0713 0.326224L29.8863 0.272542L29.634 0.21473L29.5373 0.177565L29.2388 0.111494H29.18L28.8604 0.0412942H28.81L28.4988 0H28.4232H28.1415H28.0195H27.7883H27.4351H27.2039H27.0819H26.8044H26.7246L26.4345 0.0330354H26.384L26.0645 0.0908473H26.0056L25.7113 0.156918L25.5936 0.21473L25.3539 0.28493L25.1731 0.326224L25.0302 0.375777C23.2674 0.962567 21.7762 2.14887 20.8257 3.72061L0.980722 36.5206C-0.00833842 38.2775 -0.26108 40.3438 0.276182 42.2807C0.813444 44.2177 2.09838 45.8726 3.85806 46.894C5.61774 47.9153 7.71351 48.2227 9.70023 47.7508C11.6869 47.2788 13.4081 46.0648 14.498 44.3665L25.1143 26.8454L21.2167 20.4117C20.2153 18.7409 19.9283 16.7487 20.4183 14.8706C20.9084 12.9925 22.1357 11.3814 23.8319 10.3896C24.2568 10.1441 24.7062 9.94208 25.1731 9.78673L25.3119 9.74131L25.4885 9.68349L25.7155 9.62155L25.808 9.59678L26.0897 9.53484H26.1443L26.4471 9.48115H26.4975L26.7918 9.44399H26.8633L27.1324 9.42334H27.2459H27.4645H27.8009H28.0195H28.1331L28.4021 9.44399H28.4736L28.7679 9.48115H28.8184L29.1211 9.53484H29.1758L29.4575 9.59678L29.55 9.62155L29.7812 9.68349L29.9536 9.74131L30.0923 9.78673C30.552 9.94338 30.9943 10.1454 31.4125 10.3896C33.1045 11.3855 34.3265 12.9984 34.8117 14.8761C35.297 16.7539 35.006 18.7439 34.0025 20.4117L30.1091 26.8454L40.7296 44.3995C41.8195 46.0978 43.5407 47.3119 45.5274 47.7838C47.5141 48.2557 49.6099 47.9484 51.3695 46.927C53.1292 45.9056 54.4142 44.2507 54.9514 42.3138C55.4887 40.3768 55.2359 38.3105 54.2469 36.5536L54.2427 36.5206Z" fill="url(#paint0_linear)"/>
<defs>
<linearGradient id="paint0_linear" x1="27.6117" y1="49.8256" x2="27.6117" y2="-0.677227" gradientUnits="userSpaceOnUse">
<stop offset="0.06" stop-color="#322398"/>
<stop offset="0.16" stop-color="#512DA4"/>
<stop offset="0.39" stop-color="#9F45C3"/>
<stop offset="0.59" stop-color="#E75CE0"/>
<stop offset="0.65" stop-color="#E966D6"/>
<stop offset="0.76" stop-color="#EF81BB"/>
<stop offset="0.91" stop-color="#F8AC8F"/>
<stop offset="1" stop-color="#FFCC6E"/>
</linearGradient>
</defs>
</svg>
